#!OML:ASF E:\emotionWalksFemale\Project 1\Capture day 1\Session 1\Female1.ASF
:FULLY-SPECIFIED
:DEGREES
3153
root 8.75352 15.3457 38.6469 -1.02243 -30.6121 3.54674
lowerback 6.73086 -0.35825 1.40904
upperback -4.55698 -0.300293 0.558937
thorax -8.59651 -0.215906 -0.157529
lowerneck -6.85027 -1.61292 -5.13314
upperneck 23.9164 -4.15188 10.3861
head 8.87165 -1.48708 4.01904
rclavicle 1.89839e-014 -1.11319e-014
rhumerus -43.8711 4.29223 -82.7369
rradius 39.6054
rwrist 16.089
rhand -5.56932 -50.6196
rfingers 7.12502
rthumb 20.2463 -79.5844
lclavicle 1.89839e-014 -1.11319e-014
lhumerus -44.6479 0.267185 85.1652
lradius 36.6408
lwrist -11.7328
lhand -3.34149 -31.5437
lfingers 7.12502
lthumb 22.3862 -2.82082
rfemur -4.68586 10.9577 25.4878
rtibia 28.6716
rfoot -19.1064 -24.8618
rtoes 2.2462
lfemur -11.8132 3.29445 -24.1631
ltibia 40.8024
lfoot -13.5825 6.18738
ltoes -34.6772
3154
root 8.75186 15.3203 38.6479 -1.24473 -31.1604 3.72523
lowerback 6.86593 -0.316967 1.14998
upperback -4.49338 -0.274031 0.508061
thorax -8.60474 -0.189034 -0.0691878
lowerneck -6.64565 -1.75035 -5.63777
upperneck 23.5421 -4.36544 10.9136
head 8.74275 -1.59523 4.26169
rclavicle 2.84262e-014 2.38542e-015
rhumerus -43.8547 4.61461 -82.9397
rradius 39.4873
rwrist 15.759
rhand -6.04553 -50.1463
rfingers 7.12502
rthumb 19.7886 -79.1589
lclavicle 2.84262e-014 2.38542e-015
lhumerus -44.6788 0.649728 84.8593
lradius 36.4449
lwrist -11.9342
lhand -3.22822 -31.4251
lfingers 7.12502
lthumb 22.4949 -2.71534
rfemur -5.42128 9.05756 25.6182
rtibia 28.6386
rfoot -12.3234 -28.1231
rtoes -20.8613
lfemur -11.681 3.37114 -24.3395
ltibia 40.982
lfoot -13.8819 6.56689
ltoes -34.6582
3155
root 8.74935 15.3265 38.6398 -0.834495 -31.7056 3.60475
lowerback 6.65433 -0.304454 1.17502
upperback -4.59377 -0.257827 0.514374
thorax -8.58931 -0.183246 -0.0794138
lowerneck -6.5446 -1.85817 -5.77712
upperneck 23.2959 -4.50831 11.0408
head 8.65848 -1.67093 4.31006
rclavicle -3.08116e-015 -1.59028e-015
rhumerus -43.7968 4.84199 -83.0956
rradius 39.5082
rwrist 15.5188
rhand -6.16767 -49.9043
rfingers 7.12502
rthumb 19.6712 -78.9291
lclavicle -3.08116e-015 -1.59028e-015
lhumerus -44.8016 0.929065 84.5366
lradius 36.3683
lwrist -12.1099
lhand -3.43125 -31.2867
lfingers 7.12502
lthumb 22.3 -2.5535
rfemur -5.99121 8.33129 25.84
rtibia 28.6541
rfoot -13.4718 -28.4172
rtoes -16.3387
lfemur -12.0895 3.38278 -24.2544
ltibia 41.0795
lfoot -13.9682 7.01407
ltoes -35.2387
3156
root 8.74632 15.3231 38.625 -0.687057 -32.1784 3.73837
lowerback 6.66115 -0.338906 0.862292
upperback -4.68802 -0.337666 0.503549
thorax -8.69413 -0.204726 0.096683
lowerneck -6.46503 -1.92229 -5.76873
upperneck 23.1538 -4.56199 10.9128
head 8.59763 -1.71336 4.25473
rclavicle -1.19768e-013 -2.54444e-014
rhumerus -43.7841 5.14208 -83.3204
rradius 39.7917
rwrist 15.3092
rhand -5.83496 -50.3612
rfingers 7.12502
rthumb 19.991 -79.3528
lclavicle -1.19768e-013 -2.54444e-014
lhumerus -44.9258 1.15331 84.2373
lradius 36.2683
lwrist -12.274
lhand -3.61095 -31.2682
lfingers 7.12502
lthumb 22.1275 -2.51446
rfemur -6.5814 7.40064 25.9514
rtibia 28.8205
rfoot -13.067 -29.1683
rtoes -16.6223
lfemur -12.3422 3.49756 -24.3487
ltibia 41.0932
lfoot -13.8824 7.2975
ltoes -35.4834
3157
root 8.73818 15.3191 38.6269 -1.06741 -32.8633 4.16087
lowerback 6.70858 -0.307048 0.37503
upperback -4.57735 -0.352971 0.410533
thorax -8.59879 -0.185673 0.27364
lowerneck -6.66063 -2.02343 -5.77216
upperneck 23.2518 -4.66934 10.7359
head 8.67519 -1.77479 4.18462
rclavicle -2.81777e-014 2.38542e-015
rhumerus -43.6632 5.26113 -83.4532
rradius 39.9074
rwrist 15.4062
rhand -5.40163 -50.1812
rfingers 7.12502
rthumb 20.4075 -79.1289
lclavicle -2.81777e-014 2.38542e-015
lhumerus -44.9055 1.38462 83.9348
lradius 36.0572
lwrist -12.4327
lhand -3.31504 -31.3603
lfingers 7.12502
lthumb 22.4116 -2.64046
rfemur -6.82884 6.38993 25.8581
rtibia 29.136
rfoot -11.8601 -30.2149
rtoes -19.4412
lfemur -12.0392 3.44554 -24.7509
ltibia 40.9947
lfoot -14.0241 7.84412
ltoes -34.0943
3158
root 8.72854 15.3346 38.6148 -1.02068 -33.432 4.2537
lowerback 6.67463 -0.302931 0.175616
upperback -4.57992 -0.373854 0.346285
thorax -8.5806 -0.18635 0.320444
lowerneck -6.7282 -2.20711 -6.09863
upperneck 23.1651 -4.9386 11.0192
head 8.69803 -1.90467 4.3117
rclavicle 3.92103e-014 -7.95139e-015
rhumerus -43.5261 5.10278 -83.4843
rradius 39.7562
rwrist 15.8973
rhand -5.28859 -48.859
rfingers 7.12502
rthumb 20.5161 -77.7949
lclavicle 3.92103e-014 -7.95139e-015
lhumerus -44.9316 1.49783 83.5894
lradius 35.9364
lwrist -12.5481
lhand -3.0294 -31.5615
lfingers 7.12502
lthumb 22.6858 -2.87497
rfemur -6.57682 7.19673 25.9389
rtibia 29.3345
rfoot -19.8032 -28.8323
rtoes 5.42071
lfemur -12.1113 3.35059 -24.8015
ltibia 40.9774
lfoot -14.1333 8.2885
ltoes -33.4156
3159
root 8.72558 15.335 38.6147 -1.09019 -34.2781 4.37664
lowerback 6.665 -0.226516 0.191261
upperback -4.56647 -0.280822 0.205924
thorax -8.5614 -0.146764 0.150207
lowerneck -6.66125 -2.27288 -6.04749
upperneck 22.9147 -5.03138 11.0686
head 8.60941 -1.94666 4.30423
rclavicle -5.62064e-014 -6.36111e-015
rhumerus -43.5951 5.27614 -83.8177
rradius 39.9879
rwrist 15.6896
rhand -5.60604 -49.4494
rfingers 7.12502
rthumb 20.211 -78.418
lclavicle -5.62064e-014 -6.36111e-015
lhumerus -45.0314 1.55934 83.2511
lradius 35.8753
lwrist -12.5927
lhand -3.29112 -31.4787
lfingers 7.12502
lthumb 22.4345 -2.76159
rfemur -6.58355 7.34809 26.014
rtibia 29.4231
rfoot -22.4003 -28.1467
rtoes 14.1136
lfemur -12.0786 3.63014 -24.917
ltibia 41.0411
lfoot -14.1716 8.77093
ltoes -34.4855
